# xmcd CD database file
#
# Track frame offsets:
#	150
#	16117
#	39865
#	60911
#	80170
#	99108
#	117246
#	133548
#	152679
#	165853
#	180812
#	196361
#
# Disc length: 2885 seconds
#
# Revision: 0
# Processed by: cddbd v1.5.2PL0 Copyright (c) Steve Scherf et al.
# Submitted via: CDex 1.51
#
DISCID=7a0b430c
DTITLE=Hank Ray - Countricide
DYEAR=2000
DGENRE=Country
TTITLE0=Ghosts Of Your Love
TTITLE1=The House I Live In
TTITLE2=Helldorado
TTITLE3=Lover's Lament
TTITLE4=Lord, The Ground Is Cold As Clay
TTITLE5=Sleep, Haunted Heart
TTITLE6=Overshadowed
TTITLE7=Narcotic Highway
TTITLE8=Behind Brown Eyes
TTITLE9=The Day Sweet Valerie Turned Evil
TTITLE10=Death Letter
TTITLE11=Heaven Sent Or Born In Hell
EXTD=YEAR: 2000
EXTT0=
EXTT1=
EXTT2=
EXTT3=
EXTT4=
EXTT5=
EXTT6=
EXTT7=
EXTT8=
EXTT9=
EXTT10=
EXTT11=
PLAYORDER=
